<svg width="150" height="150" viewBox="0 0 150 150" fill="none" xmlns="http://www.w3.org/2000/svg">
<path d="M56.25 125V91.875C52.5 90 50 85.625 50 81.25V56.25C50 51.875 52.5 48.125 56.25 45.625C56.25 45 56.25 44.375 56.25 43.75C56.25 36.875 50.625 31.25 43.75 31.25C36.875 31.25 31.25 36.875 31.25 43.75C31.25 50.625 36.875 56.25 43.75 56.25H31.25C28.125 56.25 25 59.375 25 62.5V87.5C25 90.625 28.125 93.75 31.25 93.75V125H56.25Z" fill="#FFC0CB"/>
<path d="M118.75 56.25H106.25C113.125 56.25 118.75 50.625 118.75 43.75C118.75 36.875 113.125 31.25 106.25 31.25C99.375 31.25 93.75 36.875 93.75 43.75C93.75 44.375 93.75 45 93.75 45.625C97.5 48.125 100 51.875 100 56.25V81.25C100 85.625 97.5 90 93.75 91.875V125H118.75V93.75C121.875 93.75 125 90.625 125 87.5V62.5C125 59.375 121.875 56.25 118.75 56.25Z" fill="#FFC0CB"/>
<path d="M87.5 37.5C87.5 44.4062 81.9062 50 75 50C68.0938 50 62.5 44.4062 62.5 37.5C62.5 30.5938 68.0938 25 75 25C81.9062 25 87.5 30.5938 87.5 37.5Z" fill="#800080"/>
<path d="M87.5 50H62.5C59.375 50 56.25 53.125 56.25 56.25V81.25C56.25 84.375 59.375 87.5 62.5 87.5V125H87.5V87.5C90.625 87.5 93.75 84.375 93.75 81.25V56.25C93.75 53.125 90.625 50 87.5 50Z" fill="#800080"/>
</svg>
