<svg width="57" height="56" viewBox="0 0 57 56" fill="none" xmlns="http://www.w3.org/2000/svg">
<path d="M22.5212 21.7583V34.2417C22.5212 35.175 22.9318 35.8556 23.753 36.2833C24.5741 36.7111 25.3758 36.6722 26.1578 36.1667L35.8947 29.9833C36.6376 29.5556 37.0091 28.8944 37.0091 28C37.0091 27.1056 36.6376 26.4444 35.8947 26.0167L26.1578 19.8333C25.3758 19.3278 24.5741 19.2889 23.753 19.7167C22.9318 20.1444 22.5212 20.825 22.5212 21.7583ZM28.3867 51.3333C25.1411 51.3333 22.091 50.7204 19.2365 49.4947C16.3819 48.2704 13.8988 46.6083 11.7872 44.5083C9.67561 42.4083 8.00431 39.9389 6.77332 37.1C5.54077 34.2611 4.9245 31.2278 4.9245 28C4.9245 24.7722 5.54077 21.7389 6.77332 18.9C8.00431 16.0611 9.67561 13.5917 11.7872 11.4917C13.8988 9.39167 16.3819 7.72878 19.2365 6.503C22.091 5.27878 25.1411 4.66667 28.3867 4.66667C31.6324 4.66667 34.6824 5.27878 37.537 6.503C40.3916 7.72878 42.8747 9.39167 44.9863 11.4917C47.0979 13.5917 48.7692 16.0611 50.0002 18.9C51.2327 21.7389 51.849 24.7722 51.849 28C51.849 31.2278 51.2327 34.2611 50.0002 37.1C48.7692 39.9389 47.0979 42.4083 44.9863 44.5083C42.8747 46.6083 40.3916 48.2704 37.537 49.4947C34.6824 50.7204 31.6324 51.3333 28.3867 51.3333ZM28.3867 46.6667C33.5875 46.6667 38.0164 44.849 41.6734 41.2137C45.3288 37.5768 47.1565 33.1722 47.1565 28C47.1565 22.8278 45.3288 18.4232 41.6734 14.7863C38.0164 11.151 33.5875 9.33333 28.3867 9.33333C23.1859 9.33333 18.7578 11.151 15.1024 14.7863C11.4454 18.4232 9.61695 22.8278 9.61695 28C9.61695 33.1722 11.4454 37.5768 15.1024 41.2137C18.7578 44.849 23.1859 46.6667 28.3867 46.6667Z" fill="#FFFEFE" fill-opacity="0.53"/>
</svg>
