<svg width="20" height="20" viewBox="0 0 20 20" fill="none" xmlns="http://www.w3.org/2000/svg">
<path d="M10 17.5C9.89335 17.5011 9.78829 17.4741 9.69531 17.4219C9.35938 17.2344 1.5625 12.8047 1.5625 7.1875C1.5625 6.20368 1.87205 5.24479 2.4473 4.44667C3.02255 3.64855 3.83434 3.05166 4.76768 2.74055C5.70102 2.42943 6.70859 2.41987 7.64766 2.71322C8.58673 3.00656 9.40971 3.58794 10 4.375C10.5903 3.58794 11.4133 3.00656 12.3523 2.71322C13.2914 2.41987 14.299 2.42943 15.2323 2.74055C16.1657 3.05166 16.9774 3.64855 17.5527 4.44667C18.128 5.24479 18.4375 6.20368 18.4375 7.1875C18.4375 9.57812 17.0547 12.0312 14.3281 14.4844C13.09 15.5974 11.7419 16.5816 10.3047 17.4219C10.2117 17.4741 10.1066 17.5011 10 17.5ZM6.25 3.75C5.33832 3.75 4.46398 4.11216 3.81932 4.75682C3.17466 5.40148 2.8125 6.27582 2.8125 7.1875C2.8125 11.5 8.59375 15.2891 10 16.1484C11.4062 15.2891 17.1875 11.5 17.1875 7.1875C17.1882 6.39283 16.9136 5.62246 16.4103 5.00745C15.9071 4.39244 15.2063 3.97079 14.4272 3.81424C13.6481 3.65768 12.8389 3.77589 12.1371 4.14876C11.4353 4.52163 10.8844 5.12611 10.5781 5.85938C10.531 5.97401 10.4509 6.07205 10.348 6.14105C10.2451 6.21005 10.1239 6.2469 10 6.2469C9.87607 6.2469 9.75494 6.21005 9.65201 6.14105C9.54907 6.07205 9.46896 5.97401 9.42188 5.85938C9.16174 5.23302 8.72133 4.6981 8.15659 4.32253C7.59184 3.94695 6.92822 3.74768 6.25 3.75Z" fill="white"/>
</svg>
