<svg width="150" height="150" viewBox="0 0 150 150" fill="none" xmlns="http://www.w3.org/2000/svg">
<path d="M52.5 111.25C52.5 118.844 46.3438 125 38.75 125C31.1562 125 25 118.844 25 111.25C25 103.656 31.1562 97.4998 38.75 97.4998C46.3438 97.4998 52.5 103.656 52.5 111.25Z" fill="#800080"/>
<path d="M91.25 125H71.875C71.875 99.3752 50.625 78.1252 25 78.1252V58.7502C61.875 58.7502 91.25 88.1252 91.25 125Z" fill="#FFC0CB"/>
<path d="M105 125C105 80.625 69.375 45 25 45V25C80 25 125 70 125 125H105Z" fill="#FFC0CB"/>
</svg>
