<svg width="30" height="24" viewBox="0 0 30 24" fill="none" xmlns="http://www.w3.org/2000/svg">
<path d="M29.4845 3.76023C29.4682 3.62881 29.4443 3.49878 29.4132 3.37099C29.3996 3.31183 29.3842 3.25135 29.3674 3.19286C29.1756 2.53268 28.8102 1.95887 28.3225 1.5522C27.8348 1.14554 27.2494 0.926489 26.6488 0.925899H26.8458C26.8458 0.925899 21.7628 0.0365574 15.0004 0C8.23848 0.0365574 3.15487 0.925899 3.15487 0.925899H3.35236C2.75166 0.926537 2.16624 1.14559 1.67849 1.55225C1.19073 1.9589 0.825189 2.53268 0.633288 3.19286C0.616783 3.25122 0.601309 3.31183 0.586637 3.37099C0.556395 3.49894 0.533005 3.62893 0.516603 3.76023C0.194833 6.49118 0.0222872 9.24299 0 11.9992C0.0223099 14.7557 0.194855 17.5078 0.516603 20.239C0.533004 20.3701 0.556394 20.4999 0.586637 20.6277C0.601309 20.6888 0.616783 20.7473 0.633288 20.8065C0.825004 21.4668 1.1905 22.0407 1.67829 22.4474C2.16608 22.8542 2.7516 23.0731 3.35236 23.0736H3.15452C3.15452 23.0736 8.23814 23.9634 15.0001 24C21.7628 23.9634 26.8455 23.0736 26.8455 23.0736H26.6484C27.2492 23.0732 27.8346 22.8542 28.3224 22.4475C28.8101 22.0408 29.1755 21.4668 29.3671 20.8065C29.3842 20.7467 29.3996 20.6888 29.4129 20.6277C29.444 20.5001 29.4678 20.3702 29.4842 20.239C29.8055 17.5077 29.9778 14.7556 30 11.9992C29.9779 9.24303 29.8058 6.49122 29.4845 3.76023ZM19.4436 12.7442L13.3856 17.8473C13.2613 17.9526 13.1113 18.0094 12.9574 18.0095C12.8424 18.0088 12.7292 17.9775 12.6263 17.918C12.5066 17.8467 12.4061 17.7385 12.3359 17.6053C12.2657 17.472 12.2286 17.319 12.2285 17.1628V6.95947C12.2281 6.80338 12.2649 6.65021 12.335 6.51696C12.4051 6.38371 12.5057 6.2756 12.6256 6.20462C12.7454 6.13365 12.8799 6.10259 13.0141 6.11489C13.1482 6.12719 13.2768 6.18237 13.3856 6.27431L19.4428 11.3757C19.5359 11.4543 19.6116 11.5573 19.6638 11.6763C19.716 11.7952 19.7433 11.9269 19.7433 12.0604C19.7433 12.1939 19.716 12.3255 19.6638 12.4444C19.6116 12.5634 19.5359 12.6664 19.4428 12.745L19.4436 12.7442Z" fill="#800080"/>
</svg>
